<?xml version="1.0" encoding="utf-8"?>
<!-- Generator: Adobe Illustrator 26.3.1, SVG Export Plug-In . SVG Version: 6.00 Build 0)  -->
<svg version="1.1" id="Capa_1" xmlns="http://www.w3.org/2000/svg" xmlns:xlink="http://www.w3.org/1999/xlink" x="0px" y="0px"
	 viewBox="0 0 2000 440" style="enable-background:new 0 0 2000 440;" xml:space="preserve">
<style type="text/css">
	.st0{fill:#FFFFFF;}
	.st1{fill:#E82077;}
</style>
<path class="st0" d="M113.6,115.1c28.6,0,52.6,10.2,71.8,30.7c19.2,20.2,28.9,45.4,28.9,75.5c0,30.1-9.6,55.3-28.9,75.5
	c-19.2,20-43.2,30-71.8,30c-25.4,0-46.4-10-62.9-30V322H0V40.8h52.2v102.9C69,124.6,89.4,115.1,113.6,115.1z M50,221
	c0,16,5.2,29.9,15.5,41.5c10.4,11.1,23.7,16.7,40,16.7s29.6-5.6,40-16.7c10.4-11.3,15.5-25.2,15.5-41.5s-5.2-30-15.5-41.1
	c-10.4-11.1-23.7-16.7-40-16.7s-29.6,5.7-40,17C55.1,191.4,50,205,50,221z"/>
<path class="st0" d="M446.7,216.5c0,6.2-0.6,13.8-1.9,22.9H293.5c7.4,28.6,27,42.9,58.8,42.9c23.4,0,45.2-6.8,65.1-20.4l20.7,36.6
	c-25.7,18.5-55,27.8-88.1,27.8c-35.3,0-62.4-10.2-81.4-30.7c-18.8-20.2-28.1-45.2-28.1-74.8c0-30.8,9.7-56.1,29.2-75.9
	c19.5-20,44.8-30,75.9-30c29.4,0,53.5,9.1,72.5,27.4C437.2,160.8,446.7,185.5,446.7,216.5z M345.7,158.4c-13.1,0-24.2,3.8-33.5,11.3
	c-9.3,7.5-15.5,17.8-18.7,30.9H396c-2.5-13.1-8.1-23.4-17-30.9C370.1,162.2,359,158.4,345.7,158.4z"/>
<path class="st0" d="M534.8,322h-52.2V120.3h50v27c12.1-21.7,30.6-32.6,55.5-32.6c8.1,0,16.3,1.5,24.4,4.4l-4.4,50
	c-8.9-2.7-16.9-4.1-24.1-4.1c-15.3,0-27.3,5.1-36.1,15.4c-8.8,10.2-13.1,25.5-13.1,45.7V322z"/>
<path class="st0" d="M690.6,322h-52.2V120.3h51.1v28.1c5.4-10.1,13.8-18.3,25.2-24.4c11.3-6.2,24.1-9.3,38.1-9.3
	c22,0,40.6,7.3,55.9,21.8c15.3,14.6,22.9,35.3,22.9,62.2V322h-52.2V212.8c0-15.8-3.8-28.1-11.5-36.8c-7.7-8.8-18-13.1-31.1-13.1
	c-13.8,0-25,4.8-33.5,14.2c-8.5,9.5-12.8,21.8-12.8,36.8V322z"/>
<path class="st0" d="M1029.9,144.4v-24.1h49.6V322h-49.6v-23.3c-17.3,18.8-38.7,28.1-64.4,28.1c-29.1,0-53.1-10.1-71.8-30.3
	c-18.8-20.2-28.1-45.6-28.1-76.2c0-30.3,9.5-55.4,28.5-75.1c19-20,42.8-30,71.4-30C990.7,115.1,1012.2,124.9,1029.9,144.4z
	 M1030.7,221c0-15.8-5.4-29.5-16.3-41.1c-10.6-11.3-24.1-17-40.3-17c-16.5,0-30.1,5.7-40.7,17c-10.4,11.4-15.5,25-15.5,41.1
	c0,16.3,5.3,30.1,15.9,41.5c10.6,11.4,24.1,17,40.3,17c16.3,0,29.7-5.7,40.3-17C1025.3,250.8,1030.7,237,1030.7,221z"/>
<path class="st0" d="M1178.7,40.8V322h-52.2V40.8H1178.7z"/>
<path class="st0" d="M1248.3,327.9c-8.6,0-15.9-2.9-21.8-8.7c-5.9-5.8-8.9-13-8.9-21.6c0-8.4,3-15.4,8.9-21.1
	c5.9-5.7,13.2-8.5,21.8-8.5c8.1,0,15.1,2.8,20.9,8.5c5.8,5.7,8.7,12.7,8.7,21.1c0,8.6-2.9,15.9-8.7,21.6
	C1263.4,325,1256.4,327.9,1248.3,327.9z"/>
<path class="st0" d="M1464,143.6V40.8h52.2V322h-51.1v-24.8c-16.3,19.7-37.1,29.6-62.5,29.6c-28.9,0-52.7-10-71.4-30
	c-19-20.5-28.5-45.8-28.5-75.9c0-29.9,9.5-55,28.5-75.5c19.2-20.2,43.1-30.3,71.4-30.3C1426.8,115.1,1447.3,124.6,1464,143.6z
	 M1466.6,221c0-16.3-5.2-30-15.5-41.1c-10.4-11.3-23.8-17-40.3-17c-16.5,0-30.1,5.7-40.7,17c-10.4,11.1-15.5,24.8-15.5,41.1
	c0,16.5,5.2,30.5,15.5,41.8c10.6,11.1,24.2,16.7,40.7,16.7c16.5,0,30-5.6,40.3-16.7C1461.5,251.5,1466.6,237.5,1466.6,221z"/>
<path class="st0" d="M1759.4,216.5c0,6.2-0.6,13.8-1.9,22.9h-151.4c7.4,28.6,27,42.9,58.8,42.9c23.4,0,45.2-6.8,65.1-20.4l20.7,36.6
	c-25.7,18.5-55,27.8-88.1,27.8c-35.3,0-62.4-10.2-81.4-30.7c-18.8-20.2-28.1-45.2-28.1-74.8c0-30.8,9.7-56.1,29.2-75.9
	c19.5-20,44.8-30,75.9-30c29.4,0,53.5,9.1,72.5,27.4C1749.9,160.8,1759.4,185.5,1759.4,216.5z M1658.3,158.4
	c-13.1,0-24.2,3.8-33.5,11.3c-9.3,7.5-15.5,17.8-18.7,30.9h102.5c-2.5-13.1-8.1-23.4-17-30.9
	C1682.8,162.2,1671.7,158.4,1658.3,158.4z"/>
<path class="st0" d="M1893,369.3l49.6-130.6h57.4L1912.3,440h-40L1785,238.7h57.4L1893,369.3z"/>
<path class="st1" d="M1893,70.7l49.6,130.6h57.4L1912.3,0h-40L1785,201.3h57.4L1893,70.7z"/>
</svg>
